<svg xmlns="http://www.w3.org/2000/svg" width="32" height="32" viewBox="0 0 32 32">
  <g fill="none" transform="translate(3 1)">
    <path fill="#E2E5E7" d="M5.57142857,0 C4.55,0 3.71428571,0.84375 3.71428571,1.875 L3.71428571,28.125 C3.71428571,29.15625 4.55,30 5.57142857,30 L24.1428571,30 C25.1642857,30 26,29.15625 26,28.125 L26,7.5 L18.5714286,0 L5.57142857,0 Z"/>
    <path fill="#B0B7BD" d="M20.4285714,7.5 L26,7.5 L18.5714286,0 L18.5714286,5.625 C18.5714286,6.65625 19.4071429,7.5 20.4285714,7.5 Z"/>
    <polygon fill="#CAD1D8" points="26 13.125 20.429 7.5 26 7.5"/>
    <path fill="#50BEE8" d="M22.2857143,24.375 C22.2857143,24.890625 21.8678571,25.3125 21.3571429,25.3125 L0.928571429,25.3125 C0.417857143,25.3125 0,24.890625 0,24.375 L0,15 C0,14.484375 0.417857143,14.0625 0.928571429,14.0625 L21.3571429,14.0625 C21.8678571,14.0625 22.2857143,14.484375 22.2857143,15 L22.2857143,24.375 Z"/>
    <g fill="#FFF" transform="translate(2.96 17.11)">
      <path d="M.55575 5.390625C.310607143 5.390625.0431785714 5.2546875.0431785714 4.925625L.0431785714.6684375C.0431785714.3984375.310607143.2034375.55575.2034375L2.25596429.2034375C5.64896429.2034375 5.57375 5.390625 2.32189286 5.390625L.55575 5.390625zM1.02375 1.1175L1.02375 4.475625 2.25596429 4.475625C4.26075 4.475625 4.34896429 1.1175 2.25596429 1.1175L1.02375 1.1175zM8.41517857 5.465625C7.04182143 5.525625 5.61553571 4.603125 5.61553571 2.7665625 5.61553571.9225 7.04089286.0159375 8.41517857.0159375 9.71425.0825 11.07275.99 11.07275 2.7665625 11.07275 4.5440625 9.71425 5.465625 8.41517857 5.465625zM8.33346429.9909375C7.50146429.9909375 6.59610714 1.5834375 6.59610714 2.7675 6.59610714 3.945 7.50239286 4.545 8.33346429 4.545 9.18775 4.545 10.1005357 3.945 10.1005357 2.7675 10.1005357 1.5825 9.18775.9909375 8.33346429.9909375zM11.9465357 2.7590625C11.9465357 1.3125 12.8453929.0684375 14.5530357.0684375 15.1993214.0684375 15.7118929.2634375 16.25325.7359375 16.4538214.9225 16.4761071 1.2525 16.2755357 1.4625 16.0749643 1.6415625 15.7703929 1.62 15.5921071 1.44 15.2884643 1.1175 14.9764643 1.0284375 14.5530357 1.0284375 13.4099643 1.0284375 12.8611786 1.8459375 12.8611786 2.76 12.8611786 3.69 13.4025357 4.5440625 14.5530357 4.5440625 14.9764643 4.5440625 15.3701786 4.370625 15.7118929 4.0640625 15.94125 3.8840625 16.2606786 3.973125 16.3943929 4.1540625 16.51325 4.3190625 16.57175 4.5965625 16.3126786 4.858125 15.7926786 5.3465625 15.1696071 5.4440625 14.5521071 5.4440625 12.75625 5.4440625 11.9465357 4.205625 11.9465357 2.7590625z"/>
    </g>
    <path fill="#CAD1D8" d="M21.3571429,25.3125 L3.71428571,25.3125 L3.71428571,26.25 L21.3571429,26.25 C21.8678571,26.25 22.2857143,25.828125 22.2857143,25.3125 L22.2857143,24.375 C22.2857143,24.890625 21.8678571,25.3125 21.3571429,25.3125 Z"/>
  </g>
</svg>
