<svg xmlns="http://www.w3.org/2000/svg" width="32" height="32" viewBox="0 0 32 32">
  <g fill="none" transform="translate(3 1)">
    <path fill="#E2E5E7" d="M5.57142857,0 C4.55,0 3.71428571,0.84375 3.71428571,1.875 L3.71428571,28.125 C3.71428571,29.15625 4.55,30 5.57142857,30 L24.1428571,30 C25.1642857,30 26,29.15625 26,28.125 L26,7.5 L18.5714286,0 L5.57142857,0 Z"/>
    <path fill="#B0B7BD" d="M20.4285714,7.5 L26,7.5 L18.5714286,0 L18.5714286,5.625 C18.5714286,6.65625 19.4071429,7.5 20.4285714,7.5 Z"/>
    <polygon fill="#CAD1D8" points="26 13.125 20.429 7.5 26 7.5"/>
    <path fill="#F15642" d="M22.2857143,24.375 C22.2857143,24.890625 21.8678571,25.3125 21.3571429,25.3125 L0.928571429,25.3125 C0.417857143,25.3125 0,24.890625 0,24.375 L0,15 C0,14.484375 0.417857143,14.0625 0.928571429,14.0625 L21.3571429,14.0625 C21.8678571,14.0625 22.2857143,14.484375 22.2857143,15 L22.2857143,24.375 Z"/>
    <g fill="#FFF" transform="translate(4.004 17.227)">
      <path d="M.0431785714.53625C.0431785714.28875.236321429.01875.547392857.01875L2.26246429.01875C3.22817857.01875 4.09732143.67125 4.09732143 1.921875 4.09732143 3.106875 3.22817857 3.766875 2.26246429 3.766875L1.02282143 3.766875 1.02282143 4.756875C1.02282143 5.086875.814821429 5.2734375.547392857 5.2734375.30225 5.2734375.0431785714 5.086875.0431785714 4.756875L.0431785714.53625zM1.02282143.9628125L1.02282143 2.8303125 2.26246429 2.8303125C2.76017857 2.8303125 3.15389286 2.386875 3.15389286 1.921875 3.15389286 1.3978125 2.76017857.9628125 2.26246429.9628125L1.02282143.9628125zM5.55146429 5.2734375C5.30632143 5.2734375 5.03889286 5.1384375 5.03889286 4.809375L5.03889286.55125C5.03889286.2821875 5.30632143.08625 5.55146429.08625L7.25167857.08625C10.6446786.08625 10.5703929 5.2734375 7.31853571 5.2734375L5.55146429 5.2734375zM6.01946429 1.00125L6.01946429 4.359375 7.25167857 4.359375C9.25646429 4.359375 9.34560714 1.00125 7.25167857 1.00125L6.01946429 1.00125zM11.7738214 1.06125L11.7738214 2.2528125 13.6671786 2.2528125C13.9346071 2.2528125 14.2020357 2.5228125 14.2020357 2.784375 14.2020357 3.031875 13.9346071 3.234375 13.6671786 3.234375L11.7738214 3.234375 11.7738214 4.8084375C11.7738214 5.0709375 11.5890357 5.2725 11.3290357 5.2725 11.0021786 5.2725 10.8025357 5.0709375 10.8025357 4.8084375L10.8025357.5503125C10.8025357.28125 11.0031071.0853125 11.3290357.0853125L13.9355357.0853125C14.2623929.0853125 14.4555357.28125 14.4555357.5503125 14.4555357.7903125 14.2623929 1.0603125 13.9355357 1.0603125L11.7738214 1.0603125 11.7738214 1.06125z"/>
    </g>
    <path fill="#CAD1D8" d="M21.3571429,25.3125 L3.71428571,25.3125 L3.71428571,26.25 L21.3571429,26.25 C21.8678571,26.25 22.2857143,25.828125 22.2857143,25.3125 L22.2857143,24.375 C22.2857143,24.890625 21.8678571,25.3125 21.3571429,25.3125 Z"/>
  </g>
</svg>
