<svg xmlns="http://www.w3.org/2000/svg" width="32" height="32" viewBox="0 0 32 32">
  <g fill="none" transform="translate(3 1)">
    <path fill="#E2E5E7" d="M5.57142857,0 C4.55,0 3.71428571,0.84375 3.71428571,1.875 L3.71428571,28.125 C3.71428571,29.15625 4.55,30 5.57142857,30 L24.1428571,30 C25.1642857,30 26,29.15625 26,28.125 L26,7.5 L18.5714286,0 L5.57142857,0 Z"/>
    <path fill="#B0B7BD" d="M20.4285714,7.5 L26,7.5 L18.5714286,0 L18.5714286,5.625 C18.5714286,6.65625 19.4071429,7.5 20.4285714,7.5 Z"/>
    <polygon fill="#CAD1D8" points="26 13.125 20.429 7.5 26 7.5"/>
    <path fill="#576D7E" d="M22.2857143,24.375 C22.2857143,24.890625 21.8678571,25.3125 21.3571429,25.3125 L0.928571429,25.3125 C0.417857143,25.3125 0,24.890625 0,24.375 L0,15 C0,14.484375 0.417857143,14.0625 0.928571429,14.0625 L21.3571429,14.0625 C21.8678571,14.0625 22.2857143,14.484375 22.2857143,15 L22.2857143,24.375 Z"/>
    <g fill="#FFF" transform="translate(4.063 17.227)">
      <path d="M.0529285714.53625C.0529285714.28875.246071429.0178125.558071429.0178125L2.27314286.0178125C3.23885714.0178125 4.108.6703125 4.108 1.921875 4.108 3.106875 3.23885714 3.7659375 2.27314286 3.7659375L1.03257143 3.7659375 1.03257143 4.7559375C1.03257143 5.086875.8255 5.2734375.558071429 5.2734375.312928571 5.2734375.0529285714 5.086875.0529285714 4.7559375.0529285714 4.7559375.0529285714.53625.0529285714.53625zM1.03257143.9628125L1.03257143 2.829375 2.27221429 2.829375C2.76992857 2.829375 3.16364286 2.386875 3.16364286 1.921875 3.16364286 1.396875 2.76992857.9628125 2.27221429.9628125L1.03257143.9628125zM4.90285714 4.8084375L4.90285714.55125C4.90285714.28125 5.096.08625 5.43028571.08625 5.68935714.08625 5.8825.28125 5.8825.55125L5.8825 2.1853125 8.30235714 2.1853125 8.30235714.55125C8.30235714.28125 8.54007143.08625 8.8075.08625 9.06657143.08625 9.26807143.28125 9.26807143.55125L9.26807143 4.8084375C9.26807143 5.0709375 9.06657143 5.2734375 8.8075 5.2734375 8.54007143 5.2734375 8.30235714 5.0709375 8.30235714 4.8084375L8.30235714 3.1678125 5.8825 3.1678125 5.8825 4.8084375C5.8825 5.0709375 5.68935714 5.2734375 5.43028571 5.2734375 5.096 5.2734375 4.90285714 5.0709375 4.90285714 4.8084375zM10.3108571.53625C10.3108571.28875 10.504.0178125 10.816.0178125L12.5310714.0178125C13.4967857.0178125 14.3659286.6703125 14.3659286 1.921875 14.3659286 3.106875 13.4967857 3.7659375 12.5310714 3.7659375L11.2914286 3.7659375 11.2914286 4.7559375C11.2914286 5.086875 11.0834286 5.2734375 10.816 5.2734375 10.5708571 5.2734375 10.3108571 5.086875 10.3108571 4.7559375L10.3108571.53625zM11.2914286.9628125L11.2914286 2.829375 12.5310714 2.829375C13.0287857 2.829375 13.4225 2.386875 13.4225 1.921875 13.4225 1.396875 13.0287857.9628125 12.5310714.9628125L11.2914286.9628125z"/>
    </g>
    <path fill="#CAD1D8" d="M21.3571429,25.3125 L3.71428571,25.3125 L3.71428571,26.25 L21.3571429,26.25 C21.8678571,26.25 22.2857143,25.828125 22.2857143,25.3125 L22.2857143,24.375 C22.2857143,24.890625 21.8678571,25.3125 21.3571429,25.3125 Z"/>
  </g>
</svg>
