<svg xmlns="http://www.w3.org/2000/svg" width="32" height="32" viewBox="0 0 32 32">
  <g fill="none" transform="translate(3 1)">
    <path fill="#E2E5E7" d="M5.57142857,0 C4.55,0 3.71428571,0.84375 3.71428571,1.875 L3.71428571,28.125 C3.71428571,29.15625 4.55,30 5.57142857,30 L24.1428571,30 C25.1642857,30 26,29.15625 26,28.125 L26,7.5 L18.5714286,0 L5.57142857,0 Z"/>
    <path fill="#B0B7BD" d="M20.4285714,7.5 L26,7.5 L18.5714286,0 L18.5714286,5.625 C18.5714286,6.65625 19.4071429,7.5 20.4285714,7.5 Z"/>
    <polygon fill="#CAD1D8" points="26 13.125 20.429 7.5 26 7.5"/>
    <path fill="#50BEE8" d="M22.2857143,24.375 C22.2857143,24.890625 21.8678571,25.3125 21.3571429,25.3125 L0.928571429,25.3125 C0.417857143,25.3125 0,24.890625 0,24.375 L0,15 C0,14.484375 0.417857143,14.0625 0.928571429,14.0625 L21.3571429,14.0625 C21.8678571,14.0625 22.2857143,14.484375 22.2857143,15 L22.2857143,24.375 Z"/>
    <g fill="#FFF" transform="translate(3.946 17.05)">
      <path d="M3.09276414e-16.71203125C3.09276414e-16.46453125.193142857.19359375.504214286.19359375L2.21928571.19359375C3.185.19359375 4.05414286.84609375 4.05414286 2.09765625 4.05414286 3.28265625 3.185 3.94171875 2.21928571 3.94171875L.979642857 3.94171875.979642857 4.93171875C.979642857 5.26265625.771642857 5.44921875.504214286 5.44921875.259071429 5.44921875 0 5.26265625 0 4.93171875L3.09276414e-16.71203125zM.979642857 1.13859375L.979642857 3.00515625 2.21928571 3.00515625C2.717 3.00515625 3.11071429 2.56265625 3.11071429 2.09765625 3.11071429 1.57265625 2.717 1.13859375 2.21928571 1.13859375L.979642857 1.13859375zM4.89357143 1.38609375C5.06442857-.06796875 7.23914286-.32953125 8.26428571.46546875 8.76942857.87703125 8.23457143 1.52953125 7.78885714 1.19953125 7.23914286.84703125 5.99207143.68203125 5.83607143 1.46109375 5.6355 2.69109375 8.86507143 1.98703125 8.81307143 3.98015625 8.76107143 5.88421875 6.02921429 5.92921875 5.00407143 5.07421875 4.758 4.87265625 4.76635714 4.54359375 4.90007143 4.34015625 5.09321429 4.14609375 5.30771429 4.07859375 5.56121429 4.28765625 6.16942857 4.70765625 7.73685714 5.02265625 7.84735714 3.95671875 7.75171429 2.84859375 4.66235714 3.51609375 4.89357143 1.38609375zM10.3442857 5.44921875C10.0991429 5.44921875 9.83171429 5.31328125 9.83171429 4.98421875L9.83171429.72703125C9.83171429.45703125 10.0991429.26203125 10.3442857.26203125L12.0445.26203125C15.4375.26203125 15.3632143 5.44921875 12.1113571 5.44921875L10.3442857 5.44921875zM10.8122857 1.17609375L10.8122857 4.53421875 12.0445 4.53421875C14.0492857 4.53421875 14.1384286 1.17609375 12.0445 1.17609375L10.8122857 1.17609375z"/>
    </g>
    <path fill="#CAD1D8" d="M21.3571429,25.3125 L3.71428571,25.3125 L3.71428571,26.25 L21.3571429,26.25 C21.8678571,26.25 22.2857143,25.828125 22.2857143,25.3125 L22.2857143,24.375 C22.2857143,24.890625 21.8678571,25.3125 21.3571429,25.3125 Z"/>
  </g>
</svg>
