<svg xmlns="http://www.w3.org/2000/svg" width="32" height="32" viewBox="0 0 32 32">
  <g fill="none" transform="translate(3 1)">
    <path fill="#E2E5E7" d="M5.57142857,0 C4.55,0 3.71428571,0.84375 3.71428571,1.875 L3.71428571,28.125 C3.71428571,29.15625 4.55,30 5.57142857,30 L24.1428571,30 C25.1642857,30 26,29.15625 26,28.125 L26,7.5 L18.5714286,0 L5.57142857,0 Z"/>
    <path fill="#B0B7BD" d="M20.4285714,7.5 L26,7.5 L18.5714286,0 L18.5714286,5.625 C18.5714286,6.65625 19.4071429,7.5 20.4285714,7.5 Z"/>
    <polygon fill="#CAD1D8" points="26 13.125 20.429 7.5 26 7.5"/>
    <path fill="#84BD5A" d="M22.2857143,24.375 C22.2857143,24.890625 21.8678571,25.3125 21.3571429,25.3125 L0.928571429,25.3125 C0.417857143,25.3125 0,24.890625 0,24.375 L0,15 C0,14.484375 0.417857143,14.0625 0.928571429,14.0625 L21.3571429,14.0625 C21.8678571,14.0625 22.2857143,14.484375 22.2857143,15 L22.2857143,24.375 Z"/>
    <g fill="#FFF" transform="translate(5.281 17.227)">
      <path d="M.559464286 5.2734375C.0914642857 5.2734375-.09425 4.816875.173178571 4.494375L2.81682143.94875.625392857.94875C-.0199642857.94875.0320357143.028125.625392857.028125L3.61817857.028125C4.18182143.028125 4.34525.56625 3.94503571 1.0021875L1.41282143 4.321875 3.82617857 4.321875C4.42046429 4.321875 4.49475 5.274375 3.76767857 5.274375L.559464286 5.274375.559464286 5.2734375zM5.16796429.53625C5.16796429-.07875 6.14853571-.10125 6.14853571.53625L6.14853571 4.8159375C6.14853571 5.4375 5.16796429 5.4534375 5.16796429 4.8159375L5.16796429.53625zM7.46432143.53625C7.46432143.28875 7.65746429.01875 7.96946429.01875L9.68453571.01875C10.65025.01875 11.5193929.67125 11.5193929 1.921875 11.5193929 3.106875 10.65025 3.766875 9.68453571 3.766875L8.44489286 3.766875 8.44489286 4.756875C8.44489286 5.086875 8.23689286 5.2734375 7.96946429 5.2734375 7.72432143 5.2734375 7.46432143 5.086875 7.46432143 4.756875L7.46432143.53625zM8.44396429.9628125L8.44396429 2.8303125 9.68360714 2.8303125C10.1813214 2.8303125 10.5750357 2.386875 10.5750357 1.921875 10.5750357 1.3978125 10.1813214.9628125 9.68360714.9628125L8.44396429.9628125z"/>
    </g>
    <path fill="#CAD1D8" d="M21.3571429,25.3125 L3.71428571,25.3125 L3.71428571,26.25 L21.3571429,26.25 C21.8678571,26.25 22.2857143,25.828125 22.2857143,25.3125 L22.2857143,24.375 C22.2857143,24.890625 21.8678571,25.3125 21.3571429,25.3125 Z"/>
  </g>
</svg>
